<svg width="128" height="19" viewBox="0 0 128 19" fill="none" xmlns="http://www.w3.org/2000/svg">
<path d="M15.875 9.15C15.875 10.9333 15.5083 12.4917 14.775 13.825C14.0583 15.1417 13 16.1667 11.6 16.9C10.2167 17.6333 8.55833 18 6.625 18H0.725V0.349999H6.625C8.55833 0.349999 10.2167 0.716666 11.6 1.45C13 2.16667 14.0583 3.18333 14.775 4.5C15.5083 5.81667 15.875 7.36667 15.875 9.15ZM6.4 15.425C8.51667 15.425 10.1417 14.875 11.275 13.775C12.4083 12.675 12.975 11.1333 12.975 9.15C12.975 7.16667 12.4083 5.625 11.275 4.525C10.1417 3.425 8.51667 2.875 6.4 2.875H3.575V15.425H6.4ZM31.5926 13.3C31.5926 14.1667 31.3842 14.975 30.9676 15.725C30.5509 16.4583 29.9176 17.05 29.0676 17.5C28.2176 17.95 27.1759 18.175 25.9426 18.175C24.7426 18.175 23.6676 17.9667 22.7176 17.55C21.7676 17.1167 21.0092 16.5167 20.4426 15.75C19.8759 14.9833 19.5509 14.1 19.4676 13.1H22.5176C22.6009 13.8667 22.9259 14.525 23.4926 15.075C24.0759 15.625 24.8509 15.9 25.8176 15.9C26.6842 15.9 27.3509 15.6667 27.8176 15.2C28.3009 14.7333 28.5426 14.1333 28.5426 13.4C28.5426 12.7667 28.3676 12.25 28.0176 11.85C27.6676 11.4333 27.2342 11.1083 26.7176 10.875C26.2009 10.6417 25.4926 10.375 24.5926 10.075C23.4926 9.725 22.5926 9.375 21.8926 9.025C21.2092 8.675 20.6259 8.16667 20.1426 7.5C19.6592 6.83333 19.4176 5.95833 19.4176 4.875C19.4176 3.925 19.6509 3.09167 20.1176 2.375C20.5842 1.65833 21.2509 1.10833 22.1176 0.724999C22.9842 0.324999 23.9842 0.124999 25.1176 0.124999C26.9176 0.124999 28.3426 0.558332 29.3926 1.425C30.4592 2.29167 31.0676 3.425 31.2176 4.825H28.1426C28.0259 4.15833 27.7092 3.59167 27.1926 3.125C26.6926 2.64167 26.0009 2.4 25.1176 2.4C24.3176 2.4 23.6759 2.60833 23.1926 3.025C22.7092 3.425 22.4676 4.00833 22.4676 4.775C22.4676 5.375 22.6342 5.875 22.9676 6.275C23.3009 6.65833 23.7176 6.96667 24.2176 7.2C24.7342 7.41667 25.4342 7.675 26.3176 7.975C27.4342 8.325 28.3426 8.68333 29.0426 9.05C29.7592 9.4 30.3592 9.91667 30.8426 10.6C31.3426 11.2833 31.5926 12.1833 31.5926 13.3ZM43.7707 0.2C45.8707 0.2 47.6207 0.716666 49.0207 1.75C50.4207 2.78333 51.3457 4.19167 51.7957 5.975H48.7957C48.4124 5.025 47.779 4.26667 46.8957 3.7C46.029 3.13333 44.9957 2.85 43.7957 2.85C42.6957 2.85 41.704 3.10833 40.8207 3.625C39.954 4.14167 39.2707 4.875 38.7707 5.825C38.2874 6.775 38.0457 7.89167 38.0457 9.175C38.0457 10.525 38.2957 11.6833 38.7957 12.65C39.2957 13.6167 39.9957 14.3583 40.8957 14.875C41.8124 15.375 42.8707 15.625 44.0707 15.625C45.5374 15.625 46.7957 15.175 47.8457 14.275C48.8957 13.3583 49.529 12.1083 49.7457 10.525H43.2707V8.425H52.1457V11.15C51.9457 12.45 51.479 13.6333 50.7457 14.7C50.029 15.75 49.0707 16.5917 47.8707 17.225C46.6874 17.8583 45.329 18.175 43.7957 18.175C42.079 18.175 40.5624 17.7917 39.2457 17.025C37.929 16.2583 36.9124 15.2 36.1957 13.85C35.479 12.4833 35.1207 10.925 35.1207 9.175C35.1207 7.425 35.479 5.875 36.1957 4.525C36.9124 3.15833 37.9207 2.1 39.2207 1.35C40.5374 0.583333 42.054 0.2 43.7707 0.2ZM70.5566 18H67.7066L59.1316 4.975V18H56.2816V0.374999H59.1316L67.7066 13.45V0.374999H70.5566V18ZM78.1063 11.15V18H75.2563V0.349999H81.2563C83.2896 0.349999 84.8146 0.833333 85.8313 1.8C86.8646 2.76667 87.3813 4.09167 87.3813 5.775C87.3813 7.44167 86.8563 8.75833 85.8063 9.725C84.7563 10.675 83.2396 11.15 81.2563 11.15H78.1063ZM80.9563 8.825C83.3063 8.825 84.4813 7.80833 84.4813 5.775C84.4813 4.775 84.1979 4.01667 83.6313 3.5C83.0813 2.96667 82.1896 2.7 80.9563 2.7H78.1063V8.825H80.9563ZM99.3053 0.124999C100.939 0.124999 102.414 0.508333 103.73 1.275C105.064 2.04167 106.105 3.11667 106.855 4.5C107.622 5.86667 108.005 7.41667 108.005 9.15C108.005 10.8833 107.622 12.4417 106.855 13.825C106.105 15.1917 105.064 16.2667 103.73 17.05C102.414 17.8167 100.939 18.2 99.3053 18.2C97.6553 18.2 96.1636 17.8167 94.8303 17.05C93.5136 16.2667 92.4719 15.1917 91.7053 13.825C90.9386 12.4417 90.5553 10.8833 90.5553 9.15C90.5553 7.41667 90.9386 5.86667 91.7053 4.5C92.4719 3.11667 93.5136 2.04167 94.8303 1.275C96.1636 0.508333 97.6553 0.124999 99.3053 0.124999ZM99.3053 2.775C98.1719 2.775 97.1636 3.03333 96.2803 3.55C95.3969 4.06667 94.7053 4.80833 94.2053 5.775C93.7219 6.74167 93.4803 7.86667 93.4803 9.15C93.4803 10.4333 93.7219 11.5583 94.2053 12.525C94.7053 13.4917 95.3969 14.2333 96.2803 14.75C97.1636 15.2667 98.1719 15.525 99.3053 15.525C100.422 15.525 101.414 15.2667 102.28 14.75C103.164 14.2333 103.847 13.4917 104.33 12.525C104.83 11.5583 105.08 10.4333 105.08 9.15C105.08 7.86667 104.83 6.74167 104.33 5.775C103.847 4.80833 103.164 4.06667 102.28 3.55C101.414 3.03333 100.422 2.775 99.3053 2.775ZM127.281 9.15C127.281 10.9333 126.915 12.4917 126.181 13.825C125.465 15.1417 124.406 16.1667 123.006 16.9C121.623 17.6333 119.965 18 118.031 18H112.131V0.349999H118.031C119.965 0.349999 121.623 0.716666 123.006 1.45C124.406 2.16667 125.465 3.18333 126.181 4.5C126.915 5.81667 127.281 7.36667 127.281 9.15ZM117.806 15.425C119.923 15.425 121.548 14.875 122.681 13.775C123.815 12.675 124.381 11.1333 124.381 9.15C124.381 7.16667 123.815 5.625 122.681 4.525C121.548 3.425 119.923 2.875 117.806 2.875H114.981V15.425H117.806Z" fill="#1C1B1E"/>
</svg>
